<svg width="36" height="36" viewBox="0 0 36 36" fill="none" xmlns="http://www.w3.org/2000/svg">
<g clip-path="url(#clip0_2509_137925)">
<path d="M30 6H6V30H30V6Z" fill="#FF4600"/>
<path fill-rule="evenodd" clip-rule="evenodd" d="M13.7983 8.8125H22.1079C24.8616 8.8125 27.0938 11.0447 27.0938 13.7983V22.1079C27.0938 24.8616 24.8616 27.0938 22.1079 27.0938H13.7983C11.0447 27.0938 8.8125 24.8616 8.8125 22.1079V13.7983C8.8125 11.0447 11.0447 8.8125 13.7983 8.8125Z" fill="#FF4600"/>
<path d="M12.3575 24.9375H14.1594C14.7248 24.9375 15.2249 24.5707 15.3946 24.0313L16.7889 19.6016C17.0037 18.9194 17.7308 18.5405 18.4131 18.7552C18.8201 18.8834 19.1378 19.2038 19.2626 19.6119L20.6105 24.0211C20.777 24.5656 21.2796 24.9375 21.8489 24.9375H23.6425C24.3577 24.9375 24.9375 24.3577 24.9375 23.6425V12.3575C24.9375 11.6423 24.3577 11.0625 23.6425 11.0625H21.8738C21.2926 11.0625 20.7826 11.4497 20.6265 12.0096L19.2818 16.8305C19.0897 17.5193 18.3754 17.922 17.6865 17.7299C17.2549 17.6095 16.9162 17.2745 16.791 16.8442L15.3808 11.9958C15.22 11.4428 14.7133 11.0625 14.1374 11.0625H12.3575C11.6423 11.0625 11.0625 11.6423 11.0625 12.3575V23.6425C11.0625 24.3577 11.6423 24.9375 12.3575 24.9375Z" fill="white"/>
</g>
<defs>
<clipPath id="clip0_2509_137925">
<rect width="24" height="24" fill="white" transform="translate(6 6)"/>
</clipPath>
</defs>
</svg>
