<svg width="156" height="32" viewBox="0 0 156 32" fill="none" xmlns="http://www.w3.org/2000/svg">
<g clip-path="url(#clip0_2509_137788)">
<path d="M32 0H0V32H32V0Z" fill="#FF4600"/>
<path fill-rule="evenodd" clip-rule="evenodd" d="M10.3977 3.75H21.4772C25.1487 3.75 28.125 6.72629 28.125 10.3977V21.4772C28.125 25.1487 25.1487 28.125 21.4772 28.125H10.3977C6.72629 28.125 3.75 25.1487 3.75 21.4772V10.3977C3.75 6.72629 6.72629 3.75 10.3977 3.75Z" fill="#FF4600"/>
<path d="M8.47666 25.25H10.8792C11.6331 25.25 12.2998 24.7609 12.5261 24.0417L14.3853 18.1355C14.6716 17.2259 15.6411 16.7206 16.5508 17.007C17.0935 17.1779 17.5171 17.6051 17.6835 18.1493L19.4806 24.0281C19.7026 24.7541 20.3727 25.25 21.1319 25.25H23.5234C24.477 25.25 25.25 24.477 25.25 23.5234V8.47666C25.25 7.52305 24.477 6.75 23.5234 6.75H21.1651C20.3901 6.75 19.7101 7.26631 19.502 8.01276L17.7091 14.4406C17.4529 15.3591 16.5005 15.896 15.582 15.6399C15.0065 15.4794 14.5549 15.0326 14.388 14.4589L12.5077 7.99445C12.2933 7.25711 11.6177 6.75 10.8498 6.75H8.47666C7.52305 6.75 6.75 7.52305 6.75 8.47666V23.5234C6.75 24.477 7.52305 25.25 8.47666 25.25Z" fill="white"/>
</g>
<path d="M46.0273 25V15.0156H44.3164V12.4375H46.0273V11.4297C46.0273 8.96875 47.1992 7.83203 50.1641 7.83203C50.7969 7.83203 51.4883 7.89062 51.8867 7.97266V10.2344C51.6523 10.1875 51.3242 10.1758 51.0078 10.1758C49.8711 10.1758 49.3672 10.6562 49.3672 11.5586V12.4375H51.8633V15.0156H49.4492V25H46.0273ZM58.4961 25.2578C54.6523 25.2578 52.3203 22.7617 52.3203 18.7422V18.7305C52.3203 14.7344 54.6758 12.1797 58.3555 12.1797C62.0352 12.1797 64.3438 14.6758 64.3438 18.4727V19.5273H55.6953C55.7305 21.5312 56.8203 22.7031 58.5664 22.7031C59.9727 22.7031 60.8281 21.9297 61.0742 21.2266L61.0977 21.1562H64.2383L64.2031 21.2852C63.8164 23.1367 62.082 25.2578 58.4961 25.2578ZM58.4141 14.7344C57.0078 14.7344 55.9531 15.6719 55.7305 17.3711H61.0625C60.8516 15.6367 59.832 14.7344 58.4141 14.7344ZM69.8516 25.1992C67.332 25.1992 65.6328 23.6172 65.6328 21.4023V21.3789C65.6328 19.0938 67.4023 17.7578 70.5195 17.5586L73.625 17.3711V16.5977C73.625 15.4844 72.8984 14.793 71.5625 14.793C70.2852 14.793 69.5117 15.3906 69.3477 16.1992L69.3242 16.3047H66.1953L66.207 16.1641C66.3945 13.8438 68.3867 12.1797 71.7031 12.1797C74.9492 12.1797 77.0469 13.8555 77.0469 16.3867V25H73.625V23.125H73.5547C72.8398 24.4141 71.5039 25.1992 69.8516 25.1992ZM69.0195 21.2266C69.0195 22.1523 69.7812 22.7031 70.9648 22.7031C72.5 22.7031 73.625 21.7188 73.625 20.4062V19.5039L71.0352 19.668C69.7109 19.75 69.0195 20.3125 69.0195 21.2031V21.2266ZM84.2539 25.2578C81.4648 25.2578 80.1523 24.1797 80.1523 21.4844V15.0156H78.4062V12.4375H80.1523V9.36719H83.6094V12.4375H85.9062V15.0156H83.6094V21.1094C83.6094 22.2812 84.1367 22.6797 85.168 22.6797C85.4727 22.6797 85.6953 22.6445 85.9062 22.6211V25.1289C85.5195 25.1875 84.9688 25.2578 84.2539 25.2578ZM92.0703 25.2578C89.3047 25.2578 87.7344 23.4883 87.7344 20.5469V12.4375H91.1562V19.832C91.1562 21.4727 91.9297 22.4219 93.4648 22.4219C95 22.4219 95.9727 21.2969 95.9727 19.6562V12.4375H99.3945V25H95.9727V22.9258H95.9023C95.2578 24.3672 93.9688 25.2578 92.0703 25.2578ZM101.621 25V12.4375H105.043V14.6289H105.113C105.488 13.082 106.508 12.1797 107.973 12.1797C108.348 12.1797 108.699 12.2383 108.957 12.3086V15.3203C108.676 15.2031 108.207 15.1328 107.715 15.1328C106.027 15.1328 105.043 16.1406 105.043 17.9688V25H101.621ZM115.66 25.2578C111.816 25.2578 109.484 22.7617 109.484 18.7422V18.7305C109.484 14.7344 111.84 12.1797 115.52 12.1797C119.199 12.1797 121.508 14.6758 121.508 18.4727V19.5273H112.859C112.895 21.5312 113.984 22.7031 115.73 22.7031C117.137 22.7031 117.992 21.9297 118.238 21.2266L118.262 21.1562H121.402L121.367 21.2852C120.98 23.1367 119.246 25.2578 115.66 25.2578ZM115.578 14.7344C114.172 14.7344 113.117 15.6719 112.895 17.3711H118.227C118.016 15.6367 116.996 14.7344 115.578 14.7344ZM131.199 25.293C126.172 25.293 123.043 21.9297 123.043 16.5508V16.5273C123.043 11.1484 126.195 7.79688 131.199 7.79688C136.215 7.79688 139.355 11.1602 139.355 16.5273V16.5508C139.355 21.9297 136.227 25.293 131.199 25.293ZM131.199 22.293C134.012 22.293 135.746 20.0547 135.746 16.5508V16.5273C135.746 13 133.977 10.7969 131.199 10.7969C128.434 10.7969 126.652 12.9883 126.652 16.5273V16.5508C126.652 20.0898 128.422 22.293 131.199 22.293ZM147.816 25.293C143.797 25.293 141.207 23.4531 141.008 20.3359L140.996 20.1484H144.336L144.359 20.2773C144.582 21.5898 145.977 22.4102 147.91 22.4102C149.867 22.4102 151.098 21.5547 151.098 20.2656V20.2539C151.098 19.1055 150.266 18.5312 148.168 18.0977L146.387 17.7461C143.047 17.0781 141.359 15.4844 141.359 12.9414V12.9297C141.359 9.83594 144.055 7.79688 147.805 7.79688C151.719 7.79688 154.121 9.75391 154.285 12.7188L154.297 12.9414H150.957L150.945 12.8008C150.77 11.4766 149.551 10.668 147.805 10.668C145.988 10.6797 144.898 11.5117 144.898 12.7188V12.7305C144.898 13.7969 145.766 14.418 147.711 14.8047L149.504 15.168C153.043 15.8711 154.637 17.3125 154.637 19.9727V19.9844C154.637 23.2305 152.082 25.293 147.816 25.293Z" fill="#12344D"/>
<defs>
<clipPath id="clip0_2509_137788">
<rect width="32" height="32" fill="white"/>
</clipPath>
</defs>
</svg>
