<svg width="64" height="64" viewBox="0 0 20 20" fill="none" xmlns="http://www.w3.org/2000/svg">
<g clip-path="url(#clip0_7764_32475)">
<path d="M20 0H0V20H20V0Z" fill="#FF4600"/>
<path fill-rule="evenodd" clip-rule="evenodd" d="M6.49858 2.34375H13.4233C15.718 2.34375 17.5781 4.20393 17.5781 6.49858V13.4233C17.5781 15.718 15.718 17.5781 13.4233 17.5781H6.49858C4.20393 17.5781 2.34375 15.718 2.34375 13.4233V6.49858C2.34375 4.20393 4.20393 2.34375 6.49858 2.34375Z" fill="#FF4600"/>
<path d="M5.29791 15.7812H6.79947C7.27066 15.7812 7.68738 15.4755 7.82883 15.0261L8.99078 11.3347C9.16977 10.7662 9.7757 10.4504 10.3442 10.6294C10.6834 10.7362 10.9482 11.0032 11.0522 11.3433L12.1754 15.0176C12.3141 15.4713 12.733 15.7812 13.2074 15.7812H14.7021C15.2981 15.7812 15.7812 15.2981 15.7812 14.7021V5.29791C15.7812 4.70191 15.2981 4.21875 14.7021 4.21875H13.2282C12.7438 4.21875 12.3188 4.54145 12.1888 5.00798L11.0682 9.02539C10.908 9.59945 10.3128 9.935 9.73875 9.77492C9.37906 9.67461 9.0968 9.39539 8.9925 9.0368L7.81734 4.99653C7.68333 4.5357 7.26106 4.21875 6.78113 4.21875H5.29791C4.70191 4.21875 4.21875 4.70191 4.21875 5.29791V14.7021C4.21875 15.2981 4.70191 15.7812 5.29791 15.7812Z" fill="white"/>
</g>
<defs>
<clipPath id="clip0_7764_32475">
<rect width="20" height="20" fill="white"/>
</clipPath>
</defs>
</svg>
