<svg width="81" height="80" viewBox="0 0 81 80" fill="none" xmlns="http://www.w3.org/2000/svg">
<g clip-path="url(#clip0_2769_128212)">
<path opacity="0.2" d="M40.5002 64.8841C55.2278 64.8841 67.1668 52.945 67.1668 38.2175C67.1668 23.4899 55.2278 11.5508 40.5002 11.5508C25.7726 11.5508 13.8335 23.4899 13.8335 38.2175C13.8335 52.945 25.7726 64.8841 40.5002 64.8841Z" fill="#BFC7D3"/>
<path d="M17.2197 62.4531H57.5611V16.5865C57.5611 15.4078 56.6064 14.4531 55.4277 14.4531H22.3611C21.1824 14.4531 20.2277 15.4078 20.2277 16.5865V59.3331C20.2277 60.1971 19.8704 61.0238 19.2357 61.6105C18.8144 61.9998 18.3877 62.1811 18.2651 62.2291C17.8491 62.3998 17.4757 62.4425 17.2197 62.4531Z" fill="white"/>
<path d="M57.8814 62.7728H17.2201L17.2041 62.1328C17.5294 62.1168 17.8441 62.0528 18.1428 61.9302C18.3188 61.8555 18.6761 61.6848 19.0121 61.3755C19.5774 60.8528 19.9028 60.1062 19.9028 59.3328V16.5861C19.9028 15.2315 21.0014 14.1328 22.3561 14.1328H55.4228C56.7774 14.1328 57.8761 15.2315 57.8761 16.5861V62.7728H57.8814ZM19.0921 62.1328H57.2414V16.5861C57.2414 15.5835 56.4254 14.7728 55.4281 14.7728H22.3614C21.3588 14.7728 20.5481 15.5888 20.5481 16.5861V59.3328C20.5481 60.2822 20.1481 61.1995 19.4548 61.8448C19.3321 61.9568 19.2148 62.0528 19.0974 62.1328H19.0921Z" fill="#92A2B1"/>
<path d="M13.9663 49.3496H20.2276V59.3229C20.2276 61.0509 18.825 62.4536 17.097 62.4536C15.369 62.4536 13.9663 61.0509 13.9663 59.3229V49.3496Z" fill="white"/>
<path d="M17.0972 62.7733C15.1932 62.7733 13.6465 61.2266 13.6465 59.3226V49.0293H20.5478V59.3226C20.5478 61.2266 19.0012 62.7733 17.0972 62.7733ZM14.2865 49.664V59.3226C14.2865 60.8746 15.5452 62.1333 17.0972 62.1333C18.6492 62.1333 19.9078 60.8693 19.9078 59.3226V49.664H14.2865Z" fill="#92A2B1"/>
<path d="M61.5474 62.584L64.2992 58.6511L70.3165 62.8613C71.4002 63.6196 71.6653 65.1199 70.907 66.2037C70.1488 67.2874 68.6484 67.5525 67.5647 66.7942L61.5474 62.584Z" fill="white"/>
<path d="M68.9372 67.551C68.3985 67.551 67.8545 67.391 67.3798 67.0604L61.0972 62.6657L64.2172 58.207L70.4998 62.6017C71.7265 63.4604 72.0305 65.1617 71.1665 66.3884C70.6385 67.1457 69.7905 67.5457 68.9318 67.5457L68.9372 67.551ZM61.9932 62.511L67.7478 66.5377C68.6865 67.1937 69.9878 66.9644 70.6438 66.0257C71.2998 65.087 71.0705 63.7857 70.1318 63.1297L64.3772 59.103L61.9932 62.511Z" fill="#92A2B1"/>
<path d="M61.6077 58.2662L60.2593 60.1934L62.1864 61.5417L63.5348 59.6146L61.6077 58.2662Z" fill="white"/>
<path d="M62.2649 61.989L59.8115 60.2717L61.5289 57.8184L63.9822 59.5357L62.2649 61.989ZM60.7022 60.117L62.1049 61.0984L63.0862 59.6957L61.6835 58.7144L60.7022 60.117Z" fill="#92A2B1"/>
<path d="M50.0038 65.0232C57.2881 65.0232 63.1931 59.1181 63.1931 51.8339C63.1931 44.5496 57.2881 38.6445 50.0038 38.6445C42.7195 38.6445 36.8145 44.5496 36.8145 51.8339C36.8145 59.1181 42.7195 65.0232 50.0038 65.0232Z" fill="white"/>
<path d="M50.004 65.3429C42.5533 65.3429 36.4946 59.2842 36.4946 51.8336C36.4946 44.3829 42.5533 38.3242 50.004 38.3242C57.4546 38.3242 63.5133 44.3829 63.5133 51.8336C63.5133 59.2842 57.4546 65.3429 50.004 65.3429ZM50.004 38.9642C42.9053 38.9642 37.1346 44.7402 37.1346 51.8336C37.1346 58.9269 42.9106 64.7029 50.004 64.7029C57.0973 64.7029 62.8733 58.9269 62.8733 51.8336C62.8733 44.7402 57.0973 38.9642 50.004 38.9642Z" fill="#92A2B1"/>
<path d="M50.0043 62.5389C55.9159 62.5389 60.7083 57.7465 60.7083 51.8349C60.7083 45.9232 55.9159 41.1309 50.0043 41.1309C44.0926 41.1309 39.3003 45.9232 39.3003 51.8349C39.3003 57.7465 44.0926 62.5389 50.0043 62.5389Z" fill="white"/>
<path d="M50.004 62.8644C43.924 62.8644 38.98 57.9204 38.98 51.8404C38.98 45.7604 43.924 40.8164 50.004 40.8164C56.084 40.8164 61.028 45.7604 61.028 51.8404C61.028 57.9204 56.084 62.8644 50.004 62.8644ZM50.004 41.4511C44.276 41.4511 39.62 46.1124 39.62 51.8351C39.62 57.5577 44.2813 62.2244 50.004 62.2244C55.7266 62.2244 60.3933 57.5631 60.3933 51.8351C60.3933 46.1071 55.732 41.4511 50.004 41.4511Z" fill="#92A2B1"/>
<g opacity="0.25">
<path d="M48.9906 53.7761V53.5307C48.9906 52.6454 49.3159 51.9414 50.3986 50.9814C51.0652 50.3787 51.2306 49.9094 51.2306 49.3761C51.2306 48.7841 50.8786 48.2241 50.0519 48.2241C49.1666 48.2241 48.8146 48.8107 48.7132 49.6001H46.9692C47.0332 48.5121 47.7319 46.8214 50.0839 46.8321C52.3346 46.8427 53.0226 48.3307 53.0226 49.4294C53.0226 50.3574 52.7186 50.9867 51.6839 51.9414C51.0386 52.5387 50.8252 53.0134 50.8252 53.6374V53.7761H48.9852H48.9906ZM48.9906 56.8374V54.6134H50.8306V56.8374H48.9906Z" fill="#C4CCD4"/>
</g>
<path d="M36.8093 34.4514C36.7079 34.4514 36.6066 34.4034 36.5479 34.3181C36.4466 34.1741 36.4839 33.9714 36.6279 33.8701C37.1186 33.5287 38.1426 32.9527 39.5239 32.9794C40.8253 33.0007 41.7853 33.5447 42.2439 33.8701C42.3879 33.9714 42.4253 34.1741 42.3239 34.3181C42.2226 34.4621 42.0253 34.4994 41.8759 34.3981C41.4759 34.1154 40.6386 33.6461 39.5133 33.6247C38.3026 33.5927 37.4173 34.0994 36.9959 34.3981C36.9373 34.4354 36.8733 34.4567 36.8146 34.4567L36.8093 34.4514Z" fill="#C4CCD4"/>
<path d="M31.0705 28.9696C30.9905 28.9696 30.9105 28.943 30.8465 28.879C30.7185 28.7563 30.7132 28.5536 30.8358 28.4256L34.1425 24.9803C34.2652 24.8523 34.4678 24.847 34.5958 24.9696C34.7238 25.0923 34.7292 25.295 34.6065 25.423L31.2998 28.8683C31.2358 28.9323 31.1505 28.9643 31.0705 28.9643V28.9696Z" fill="#C4CCD4"/>
<path d="M34.4465 28.9013C34.3665 28.9013 34.2865 28.8746 34.2225 28.8106L30.7772 25.5039C30.6492 25.3813 30.6438 25.1786 30.7665 25.0506C30.8892 24.9226 31.0918 24.9173 31.2198 25.0399L34.6652 28.3466C34.7932 28.4693 34.7985 28.6719 34.6758 28.7999C34.6118 28.8639 34.5265 28.8959 34.4465 28.8959V28.9013Z" fill="#C4CCD4"/>
<path d="M43.9396 28.9696C43.8596 28.9696 43.7796 28.943 43.7156 28.879C43.5876 28.7563 43.5823 28.5536 43.705 28.4256L47.0116 24.9803C47.1343 24.8523 47.337 24.847 47.465 24.9696C47.593 25.0923 47.5983 25.295 47.4756 25.423L44.169 28.8683C44.105 28.9323 44.0196 28.9643 43.9396 28.9643V28.9696Z" fill="#C4CCD4"/>
<path d="M47.3156 28.9013C47.2356 28.9013 47.1556 28.8746 47.0916 28.8106L43.6463 25.5039C43.5183 25.3813 43.513 25.1786 43.6356 25.0506C43.7583 24.9226 43.961 24.9173 44.089 25.0399L47.5343 28.3466C47.6623 28.4693 47.6676 28.6719 47.545 28.7999C47.481 28.8639 47.3956 28.8959 47.3156 28.8959V28.9013Z" fill="#C4CCD4"/>
<path d="M75.1663 71.6478H72.217C72.041 71.6478 71.897 71.5038 71.897 71.3278C71.897 71.1518 72.041 71.0078 72.217 71.0078H75.1663C75.3423 71.0078 75.4863 71.1518 75.4863 71.3278C75.4863 71.5038 75.3423 71.6478 75.1663 71.6478Z" fill="#92A2B1"/>
<path d="M69.0118 71.6478H56.0944C55.9184 71.6478 55.7744 71.5038 55.7744 71.3278C55.7744 71.1518 55.9184 71.0078 56.0944 71.0078H69.0118C69.1878 71.0078 69.3317 71.1518 69.3317 71.3278C69.3317 71.5038 69.1878 71.6478 69.0118 71.6478Z" fill="#92A2B1"/>
<path d="M53.0332 71.6478H5.83318C5.65718 71.6478 5.51318 71.5038 5.51318 71.3278C5.51318 71.1518 5.65718 71.0078 5.83318 71.0078H53.0332C53.2092 71.0078 53.3532 71.1518 53.3532 71.3278C53.3532 71.5038 53.2092 71.6478 53.0332 71.6478Z" fill="#92A2B1"/>
<path d="M14.4306 17.9095H10.6066C10.4306 17.9095 10.2866 17.7655 10.2866 17.5895C10.2866 17.4135 10.4306 17.2695 10.6066 17.2695H14.4306C14.6066 17.2695 14.7506 17.4135 14.7506 17.5895C14.7506 17.7655 14.6066 17.9095 14.4306 17.9095Z" fill="#92A2B1"/>
<path d="M18.9587 12.8209C18.7827 12.8209 18.6387 12.6769 18.6387 12.5009V8.67156C18.6387 8.49556 18.7827 8.35156 18.9587 8.35156C19.1347 8.35156 19.2787 8.49556 19.2787 8.67156V12.5009C19.2787 12.6769 19.1347 12.8209 18.9587 12.8209Z" fill="#92A2B1"/>
<path d="M15.2624 14.0586C15.193 14.0586 15.1237 14.0372 15.065 13.9946L12.0304 11.6639C11.8917 11.5572 11.865 11.3546 11.9717 11.2159C12.0784 11.0772 12.281 11.0506 12.4197 11.1572L15.4544 13.4879C15.593 13.5946 15.6197 13.7972 15.513 13.9359C15.449 14.0159 15.353 14.0586 15.257 14.0586H15.2624Z" fill="#92A2B1"/>
</g>
<defs>
<clipPath id="clip0_2769_128212">
<rect width="80" height="80" fill="white" transform="translate(0.5)"/>
</clipPath>
</defs>
</svg>
