<svg xmlns="http://www.w3.org/2000/svg" width="28" height="28" viewBox="0 0 28 28" fill="none">
  <g clip-path="url(#clip0_2773_129229)">
    <path d="M23.508 7.59509C23.228 7.59509 22.9479 7.49009 22.7554 7.28009C22.5279 7.03509 22.4229 6.70259 22.4754 6.35259L22.9654 3.64009C23.0354 3.30759 23.2454 3.01009 23.5604 2.87009L25.503 1.99509C25.9055 1.82009 26.378 1.90759 26.6755 2.22259L27.7255 3.27259C28.023 3.57009 28.1105 4.02509 27.953 4.42759L27.0604 6.56259C26.9204 6.89509 26.6054 7.14009 26.2554 7.19259L23.6655 7.59509C23.6655 7.59509 23.5605 7.59509 23.508 7.59509ZM24.9429 4.56759L24.8029 5.28509L25.363 5.19759L25.7655 4.25259L25.7305 4.21759L24.9429 4.56759Z" fill="#475867"/>
    <path d="M21.1628 9.99242C20.9003 9.99242 20.6378 9.88742 20.4278 9.69492C20.0078 9.29242 20.0078 8.62742 20.4278 8.20742L22.6153 5.98492C23.0178 5.56492 23.6828 5.56492 24.1028 5.98492C24.5228 6.38742 24.5228 7.05242 24.1028 7.47242L21.9153 9.69492C21.7053 9.90492 21.4428 10.0099 21.1628 10.0099V9.99242Z" fill="#475867"/>
    <path d="M9.24534 12.7576C7.82784 12.7576 6.42784 12.1976 5.36034 11.1301C3.76784 9.52008 3.29534 7.12258 4.18784 5.02258C4.32784 4.70758 4.60784 4.46258 4.95784 4.39258C5.29034 4.32258 5.65784 4.42758 5.90284 4.69008L8.10784 6.93008L9.00034 6.02008L6.77784 3.76258C6.53284 3.51758 6.42784 3.16758 6.49784 2.81758C6.56784 2.48508 6.79534 2.18758 7.11034 2.04758C9.19284 1.15508 11.5728 1.61008 13.1828 3.23758C14.6003 4.67258 15.1253 6.73758 14.6003 8.66258L16.6828 10.7801C17.0853 11.2001 17.0678 11.8651 16.6653 12.2676C16.2628 12.6701 15.5803 12.6526 15.1778 12.2501L12.6403 9.67758C12.3428 9.38008 12.2553 8.92508 12.4128 8.54008C12.9553 7.22758 12.6753 5.74008 11.6778 4.72508C11.1353 4.16508 10.4353 3.83258 9.70034 3.74508L11.2228 5.28508C11.6253 5.68758 11.6253 6.35258 11.2228 6.75508L8.86034 9.15258C8.45784 9.55508 7.75784 9.55508 7.37284 9.15258L5.88534 7.64758C5.99034 8.38258 6.32284 9.08258 6.86534 9.64258C7.86284 10.6401 9.31534 10.9376 10.5928 10.3776C11.1178 10.1501 11.7478 10.3776 11.9753 10.9201C12.2028 11.4451 11.9753 12.0751 11.4328 12.3026C10.7328 12.6176 9.98034 12.7576 9.26284 12.7576H9.24534Z" fill="#475867"/>
    <path d="M18.5029 19.968C18.2404 19.968 17.9604 19.863 17.7504 19.653L12.6229 14.473C12.2204 14.053 12.2204 13.388 12.6229 12.9855C13.0429 12.583 13.7079 12.583 14.1104 12.9855L19.2379 18.1655C19.6404 18.5855 19.6404 19.2505 19.2379 19.653C19.0279 19.863 18.7654 19.9505 18.5029 19.9505V19.968Z" fill="#475867"/>
    <path d="M20.883 17.692C20.603 17.692 20.3405 17.587 20.1305 17.377L15.1605 12.2495C14.758 11.8295 14.7755 11.1645 15.178 10.762C15.598 10.3595 16.263 10.377 16.6655 10.7795L21.6355 15.907C22.038 16.327 22.0205 16.992 21.618 17.3945C21.408 17.587 21.1455 17.692 20.883 17.692Z" fill="#475867"/>
    <path d="M22.7029 26.356C21.2679 26.356 19.8679 25.796 18.8179 24.7285C17.4004 23.2935 16.8754 21.2285 17.4004 19.3035L15.3179 17.186C14.9154 16.766 14.9329 16.101 15.3354 15.6985C15.7379 15.296 16.4204 15.3135 16.8229 15.716L19.3604 18.2885C19.6579 18.586 19.7454 19.041 19.5879 19.426C19.0454 20.7385 19.3254 22.2435 20.3229 23.241C20.8654 23.801 21.5654 24.1335 22.3004 24.221L20.7779 22.681C20.3754 22.2785 20.3754 21.6135 20.7779 21.211L23.1404 18.8135C23.5429 18.411 24.2429 18.411 24.6279 18.8135L26.1154 20.3185C26.0104 19.5835 25.6779 18.8835 25.1354 18.3235C24.1554 17.326 22.6854 17.0285 21.4079 17.5885C20.8829 17.816 20.2529 17.5885 20.0254 17.046C19.7979 16.521 20.0254 15.891 20.5679 15.6635C22.6329 14.7535 25.0304 15.226 26.6229 16.836C28.2154 18.446 28.6879 20.8435 27.7954 22.9435C27.6554 23.2585 27.3754 23.5035 27.0254 23.5735C26.6754 23.6435 26.3254 23.5385 26.0804 23.276L23.8754 21.036L22.9829 21.946L25.2054 24.2035C25.4504 24.4485 25.5554 24.7985 25.4854 25.1485C25.4154 25.481 25.1879 25.7785 24.8729 25.9185C24.1729 26.216 23.4204 26.3735 22.7029 26.3735V26.356Z" fill="#475867"/>
    <path d="M13.3753 14.8046C13.1128 14.8046 12.8328 14.6996 12.6228 14.4896L10.2428 12.0921C9.84029 11.6721 9.84029 11.0071 10.2428 10.6046C10.6628 10.2021 11.3278 10.2021 11.7303 10.6046L14.1103 13.0021C14.5128 13.4221 14.5128 14.0871 14.1103 14.4896C13.9003 14.6996 13.6378 14.7871 13.3753 14.7871V14.8046Z" fill="#475867"/>
    <path d="M6.90045 26.18C6.09545 26.18 5.27295 25.865 4.66045 25.2525C3.43545 24.01 3.43545 21.98 4.66045 20.755L6.44545 18.9875C6.44545 18.9875 6.60295 18.8475 6.70795 18.795L8.38795 17.92L9.22795 17.045C9.63045 16.625 10.2954 16.6075 10.7154 17.01C11.1354 17.4125 11.1529 18.0775 10.7504 18.4975L9.78795 19.5125C9.78795 19.5125 9.61295 19.67 9.50795 19.7225L7.82795 20.5975L6.16545 22.26C5.74545 22.68 5.74545 23.38 6.16545 23.8C6.56795 24.22 7.21545 24.22 7.63545 23.8L9.49045 21.9625L10.3829 20.4225C10.4354 20.335 10.5054 20.2475 10.5754 20.1775L11.643 19.215C12.063 18.83 12.728 18.8475 13.1304 19.285C13.5329 19.7225 13.4979 20.37 13.0604 20.7725L12.1154 21.63L11.2404 23.1525C11.2404 23.1525 11.1354 23.31 11.0654 23.38L9.10545 25.3225C8.49295 25.9175 7.68795 26.2325 6.90045 26.2325V26.18Z" fill="#475867"/>
  </g>
  <defs>
    <clipPath id="clip0_2773_129229">
      <rect width="28" height="28" fill="white"/>
    </clipPath>
  </defs>
</svg>