<svg xmlns="http://www.w3.org/2000/svg" width="16" height="16" viewBox="0 0 16 16" fill="none">
  <path d="M16 0H0V16H16V0Z" fill="white" fill-opacity="0.01"/>
  <path d="M5.7 7.51C5.7 8.6 5.71 10.81 5.71 12.1C5.71 12.65 6.16 13.1 6.71 13.1H12.32C12.99 13.1 13.61 12.78 13.96 12.24C14.15 11.96 14.33 11.63 14.49 11.25C14.55 11.12 14.79 10.51 14.91 9.65C14.97 9.24 15.02 8.66 14.96 7.98C14.92 7.49 14.48 7.12 13.98 7.12L10.29 7.15C11.65 5.45 12.09 3.68 11.37 2.72C11.04 2.28 10.38 1.88 9.99 2.05C9.43 2.3 9.96 3.54 9.07 4.74C8.86 5.02 8.64 5.2 8.18 5.56C7.62 6.01 6.86 6.35 6.28 6.59C6.22 6.61 6.09 6.67 5.97 6.8C5.76 7.02 5.71 7.32 5.7 7.51Z" fill="#12344D"/>
  <path d="M3.36 5.78H2C1.44772 5.78 1 6.22772 1 6.78V13C1 13.5523 1.44772 14 2 14H3.36C3.91228 14 4.36 13.5523 4.36 13V6.78C4.36 6.22772 3.91228 5.78 3.36 5.78Z" fill="#12344D"/>
</svg>