<svg width="16" height="16" viewBox="0 0 16 16" fill="none" xmlns="http://www.w3.org/2000/svg">
<path fill-rule="evenodd" clip-rule="evenodd" d="M0 8C0 3.58172 3.58172 0 8 0C10.1217 0 12.1566 0.842855 13.6569 2.34315C15.1571 3.84344 16 5.87827 16 8C16 12.4183 12.4183 16 8 16C3.58172 16 0 12.4183 0 8ZM9.00002 8L10.82 6.17L10.83 6.18C11.1062 5.90386 11.1062 5.45614 10.83 5.18C10.5539 4.90386 10.1062 4.90386 9.83002 5.18L8.00001 7L6.18001 5.17C5.90387 4.89386 5.45616 4.89386 5.18001 5.17C4.90387 5.44614 4.90387 5.89386 5.18001 6.17L7.00001 8L5.17001 9.82C4.89387 10.0961 4.89387 10.5439 5.17001 10.82C5.44616 11.0961 5.89387 11.0961 6.17001 10.82L8.00001 9L9.83002 10.83C10.1062 11.1061 10.5539 11.1061 10.83 10.83C11.1062 10.5539 11.1062 10.1061 10.83 9.83L9.00002 8Z" fill="#475867"/>
</svg>
