<svg xmlns="http://www.w3.org/2000/svg" width="20" height="20" viewBox="0 0 20 20" fill="none">
  <path fill-rule="evenodd" clip-rule="evenodd" d="M2 10C2 5.58172 5.58172 2 10 2C12.1217 2 14.1566 2.84285 15.6569 4.34315C17.1571 5.84344 18 7.87827 18 10C18 14.4183 14.4183 18 10 18C5.58172 18 2 14.4183 2 10ZM11 10L12.82 8.17L12.83 8.18C13.1062 7.90386 13.1062 7.45614 12.83 7.18C12.5539 6.90386 12.1062 6.90386 11.83 7.18L10 9L8.18001 7.17C7.90387 6.89386 7.45616 6.89386 7.18001 7.17C6.90387 7.44614 6.90387 7.89386 7.18001 8.17L9.00001 10L7.17001 11.82C6.89387 12.0961 6.89387 12.5439 7.17001 12.82C7.44616 13.0961 7.89387 13.0961 8.17001 12.82L10 11L11.83 12.83C12.1062 13.1061 12.5539 13.1061 12.83 12.83C13.1062 12.5539 13.1062 12.1061 12.83 11.83L11 10Z" fill="#475867"/>
</svg>