<svg width="10" height="10" viewBox="0 0 10 10" fill="none" xmlns="http://www.w3.org/2000/svg">
<path fill-rule="evenodd" clip-rule="evenodd" d="M9.2002 7.976V5.33C9.2002 5.09804 9.01216 4.91 8.7802 4.91C8.54824 4.91 8.3602 5.09804 8.3602 5.33V7.976C8.3602 8.35376 8.05396 8.66 7.6762 8.66H1.7242C1.34643 8.66 1.0402 8.35376 1.0402 7.976V2.024C1.0402 1.64624 1.34643 1.34 1.7242 1.34H4.4002C4.51159 1.34 4.61841 1.29575 4.69718 1.21698C4.77595 1.13822 4.8202 1.03139 4.8202 0.92C4.8202 0.68804 4.63215 0.5 4.4002 0.5H1.7242C0.882513 0.5 0.200195 1.18232 0.200195 2.024V7.976C0.200195 8.81768 0.882513 9.5 1.7242 9.5H7.6762C8.51788 9.5 9.2002 8.81768 9.2002 7.976ZM8.97185 0.53C9.07478 0.573191 9.15665 0.655062 9.19985 0.758C9.20837 0.811663 9.20837 0.866336 9.19985 0.92V3.134C9.19985 3.36596 9.01181 3.554 8.77985 3.554C8.54789 3.554 8.35985 3.36596 8.35985 3.134V1.934L3.12785 7.178C2.96177 7.34273 2.69393 7.34273 2.52785 7.178C2.36311 7.01192 2.36311 6.74408 2.52785 6.578L7.77185 1.37H6.57185C6.33989 1.37 6.15185 1.18196 6.15185 0.95C6.15185 0.71804 6.33989 0.53 6.57185 0.53H8.80985C8.86351 0.52147 8.91818 0.52147 8.97185 0.53Z" fill="#264966"/>
</svg>
