<svg xmlns="http://www.w3.org/2000/svg" width="81" height="80" viewBox="0 0 81 80" fill="none">
  <path d="M71.998 71.5664H74.926" stroke="#92A2B1" stroke-width="1.2" stroke-linecap="round" stroke-linejoin="round"/>
  <path d="M56.0029 71.5664H68.8189" stroke="#92A2B1" stroke-width="1.2" stroke-linecap="round" stroke-linejoin="round"/>
  <path d="M6.12598 71.5664H52.958" stroke="#92A2B1" stroke-width="1.2" stroke-linecap="round" stroke-linejoin="round"/>
  <path opacity="0.2" d="M40.527 67.8665C55.2546 67.8665 67.1937 55.9275 67.1937 41.1999C67.1937 26.4723 55.2546 14.5332 40.527 14.5332C25.7994 14.5332 13.8604 26.4723 13.8604 41.1999C13.8604 55.9275 25.7994 67.8665 40.527 67.8665Z" fill="#BFC7D3"/>
  <path d="M59.039 33.5416L44.0576 21.4989L47.2576 17.0723C47.519 17.0723 47.9296 17.1096 48.3883 17.2589C50.6603 18.0109 51.583 20.8376 51.9296 21.7976C52.7883 24.1816 54.6816 27.7816 59.0336 33.5363L59.039 33.5416Z" fill="white"/>
  <path d="M46.9326 17.1152H48.9593" stroke="#A0ADB4" stroke-width="1.2" stroke-miterlimit="10"/>
  <path d="M60.2489 29.2006V62.7739C60.2489 63.9526 59.2942 64.9072 58.1156 64.9072H25.0542C23.8756 64.9072 22.9209 63.9526 22.9209 62.7739V19.2486C22.9209 18.0699 23.8756 17.1152 25.0542 17.1152H38.2062" fill="white"/>
  <path d="M60.2489 29.2006V62.7739C60.2489 63.9526 59.2942 64.9072 58.1156 64.9072H25.0542C23.8756 64.9072 22.9209 63.9526 22.9209 62.7739V19.2486C22.9209 18.0699 23.8756 17.1152 25.0542 17.1152H38.2062" stroke="#92A2B1" stroke-width="1.2" stroke-miterlimit="10"/>
  <path d="M60.2496 29.2006H51.2523C49.983 29.2006 48.959 28.1499 48.959 26.8592V17.1152L60.2496 29.2006Z" fill="#92A2B1" stroke="#92A2B1" stroke-width="1.2" stroke-linecap="round" stroke-linejoin="round"/>
  <path d="M28.5586 24.4316H36.0893" stroke="#C4CCD4" stroke-width="1.2" stroke-linecap="round" stroke-linejoin="round"/>
  <path d="M28.5586 28.2715H36.0893" stroke="#C4CCD4" stroke-width="1.2" stroke-linecap="round" stroke-linejoin="round"/>
  <path d="M33.5186 52.9554C34.0572 52.4487 36.9852 49.7874 41.4439 49.9527C45.3906 50.0967 47.9239 52.358 48.5532 52.9554" stroke="#C4CCD4" stroke-width="1.2" stroke-linecap="round" stroke-linejoin="round"/>
  <path d="M33.7695 44.032L37.7749 39.8613" stroke="#C4CCD4" stroke-width="1.2" stroke-linecap="round" stroke-linejoin="round"/>
  <path d="M33.6836 39.9414L37.8543 43.9467" stroke="#C4CCD4" stroke-width="1.2" stroke-linecap="round" stroke-linejoin="round"/>
  <path d="M44.4893 44.032L48.4893 39.8613" stroke="#C4CCD4" stroke-width="1.2" stroke-linecap="round" stroke-linejoin="round"/>
  <path d="M44.4043 39.9414L48.575 43.9467" stroke="#C4CCD4" stroke-width="1.2" stroke-linecap="round" stroke-linejoin="round"/>
  <path d="M38.2067 17.1152L36.2334 24.4752L40.5534 27.7552V35.6699L46.2441 24.9712L43.3694 22.5552L46.9321 17.1152" fill="#EFF2F4"/>
  <path d="M38.2067 17.1152L36.2334 24.4752L40.5534 27.7552V35.6699L46.2441 24.9712L43.3694 22.5552L46.9321 17.1152" stroke="#A0ADB4" stroke-width="1.2" stroke-miterlimit="10" stroke-linecap="round"/>
  <path d="M37.417 10.5918L39.353 13.1678" stroke="#92A2B1" stroke-width="1.2" stroke-linecap="round" stroke-linejoin="round"/>
  <path d="M47.6575 11.7012L45.0762 13.6425" stroke="#92A2B1" stroke-width="1.2" stroke-linecap="round" stroke-linejoin="round"/>
  <path d="M42.4041 8.55469L42.3721 11.7814" stroke="#92A2B1" stroke-width="1.2" stroke-linecap="round" stroke-linejoin="round"/>
</svg>