<svg width="13" height="12" viewBox="0 0 13 12" fill="none" xmlns="http://www.w3.org/2000/svg">
<path fill-rule="evenodd" clip-rule="evenodd" d="M6.50684 0C9.82054 0 12.5068 2.68629 12.5068 6C12.5068 9.31371 9.82054 12 6.50684 12C3.19313 12 0.506836 9.31371 0.506836 6C0.506836 2.68629 3.19313 0 6.50684 0Z" fill="#2C5CC5"/>
<path d="M7.03719 6.5306V8.47161C7.03719 8.7645 6.79976 9.00194 6.50686 9.00194C6.21397 9.00194 5.97653 8.7645 5.97653 8.47161V6.5306L4.04083 6.53591C3.74794 6.53591 3.5105 6.29847 3.5105 6.00558C3.5105 5.71268 3.74794 5.47524 4.04083 5.47524L5.97653 5.46994L5.97123 3.53424C5.97123 3.24134 6.20867 3.00391 6.50156 3.00391C6.79445 3.00391 7.03189 3.24134 7.03189 3.53424L7.03719 5.46994H8.9782C9.27109 5.46994 9.50853 5.70738 9.50853 6.00027C9.50853 6.29316 9.27109 6.5306 8.9782 6.5306H7.03719Z" fill="white"/>
</svg>
