<svg width="16" height="16" viewBox="0 0 16 16" fill="none" xmlns="http://www.w3.org/2000/svg">
<rect width="16" height="16" fill="white" fill-opacity="0.01"/>
<path fill-rule="evenodd" clip-rule="evenodd" d="M11.7145 10.9143L15.0425 14.2423C15.1511 14.3476 15.2117 14.4928 15.2101 14.644C15.2086 14.7952 15.1452 14.9392 15.0345 15.0423C14.9327 15.1501 14.7908 15.2109 14.6425 15.2103C14.492 15.2103 14.3479 15.1498 14.2425 15.0423L10.9145 11.7143C8.37653 13.8247 4.62766 13.5664 2.40309 11.1278C0.178522 8.68927 0.264683 4.9325 2.59871 2.59847C4.93274 0.264439 8.68951 0.178278 11.1281 2.40285C13.5667 4.62742 13.825 8.37629 11.7145 10.9143ZM5.03564 2.29515C3.14986 3.08153 1.92406 4.92712 1.93054 6.97029C1.94373 9.75015 4.19866 11.9979 6.97854 12.0023C9.02172 12.0023 10.8634 10.7706 11.6438 8.88236C12.4242 6.99409 11.9894 4.8216 10.5423 3.37915C9.09528 1.9367 6.92143 1.50878 5.03564 2.29515Z" fill="#264966"/>
</svg>
