<svg xmlns="http://www.w3.org/2000/svg" width="16" height="16" viewBox="0 0 16 16" fill="none">
  <rect width="16" height="16" fill="white" fill-opacity="0.01"/>
  <path d="M14.97 7.92999C14.91 7.09999 14.21 6.45999 13.38 6.45999L10.76 6.47999C11.78 4.74999 11.97 3.05999 11.22 2.00999C10.8 1.40999 9.85 0.739989 9.07 1.10999C8.5 1.37999 8.45 1.97999 8.4 2.50999C8.35 3.01999 8.3 3.60999 7.9 4.16999C7.73 4.39999 7.54 4.56999 7.1 4.93999C6.65 5.31999 6.04 5.61999 5.51 5.85999V5.63999C5.51 5.30999 5.24 5.03999 4.91 5.03999H2.6C1.72 5.03999 1 5.75999 1 6.63999V13.4C1 14.28 1.72 15 2.6 15H4.91C5.24 15 5.51 14.73 5.51 14.4V14.03H11.68C12.58 14.03 13.39 13.58 13.86 12.83C14.1 12.44 14.29 12.07 14.45 11.68C14.53 11.49 14.78 10.81 14.92 9.82999C15.01 9.19999 15.02 8.55999 14.98 7.91999L14.97 7.92999ZM4.31 13.8H2.6C2.38 13.8 2.2 13.62 2.2 13.4V6.63999C2.2 6.41999 2.38 6.23999 2.6 6.23999H4.31V13.8ZM13.73 9.66999C13.61 10.53 13.38 11.13 13.34 11.24C13.21 11.56 13.05 11.88 12.84 12.2C12.59 12.6 12.16 12.83 11.68 12.83H5.56L5.54 7.15999C5.54 7.15999 5.62 7.11999 5.66 7.10999C6.3 6.81999 7.19 6.42999 7.87 5.85999C8.35 5.44999 8.62 5.22999 8.87 4.86999C9.46 4.03999 9.54 3.17999 9.58 2.61999C9.59 2.49999 9.6 2.33999 9.62 2.22999C9.78 2.28999 10.05 2.46999 10.22 2.70999C10.78 3.49999 10.33 5.14999 9.13 6.72999C8.99 6.90999 8.97 7.15999 9.07 7.35999C9.17 7.55999 9.38 7.68999 9.61 7.68999L13.36 7.65999C13.56 7.65999 13.74 7.81999 13.75 8.01999C13.79 8.56999 13.78 9.12999 13.7 9.66999H13.73Z" fill="12344D"/>
</svg>